<?xml version="1.0" encoding="utf-8"?>
<!-- Generator: Adobe Illustrator 24.0.2, SVG Export Plug-In . SVG Version: 6.00 Build 0)  -->
<svg version="1.1" id="Layer_1" xmlns="http://www.w3.org/2000/svg" xmlns:xlink="http://www.w3.org/1999/xlink" x="0px" y="0px"
	 viewBox="0 0 147 26" style="enable-background:new 0 0 147 26;" xml:space="preserve">
<style type="text/css">
	.st0{fill:#213360;}
	.st1{fill:#FFFFFF;}
</style>
<g>
	<g>
		<path class="st0" d="M71.88,24.88l-9.76-9.76c-1.17-1.17-1.17-3.07,0-4.24l9.76-9.76c1.17-1.17,3.07-1.17,4.24,0l9.76,9.76
			c1.17,1.17,1.17,3.07,0,4.24l-9.76,9.76C74.95,26.05,73.05,26.05,71.88,24.88z"/>
	</g>
	<g>
		<path class="st1" d="M75.37,7.46v4.04h3.94v2.54h-3.94v4.04h-2.75v-4.04h-3.94V11.5h3.94V7.46H75.37z"/>
	</g>
</g>
<path class="st0" d="M48,15H2c-1.1,0-2-0.9-2-2v0c0-1.1,0.9-2,2-2h46c1.1,0,2,0.9,2,2v0C50,14.1,49.1,15,48,15z"/>
<path class="st0" d="M145,15H99c-1.1,0-2-0.9-2-2v0c0-1.1,0.9-2,2-2h46c1.1,0,2,0.9,2,2v0C147,14.1,146.1,15,145,15z"/>
</svg>
